<svg xmlns="http://www.w3.org/2000/svg" width="796" height="295" fill="none" viewBox="0 0 796 295">
  <path fill="#002C6D" d="M258.637 156.889h-18.116v-11.426h18.116c2.799 0 5.078-.456 6.836-1.367 1.757-.944 3.043-2.246 3.857-3.907.814-1.66 1.221-3.531 1.221-5.615 0-2.116-.407-4.085-1.221-5.908-.814-1.823-2.1-3.288-3.857-4.395-1.758-1.106-4.037-1.66-6.836-1.66H245.6v59.619h-14.649v-71.093h27.686c5.566 0 10.335 1.009 14.306 3.027 4.004 1.986 7.064 4.736 9.18 8.252 2.116 3.516 3.174 7.536 3.174 12.061 0 4.589-1.058 8.561-3.174 11.914-2.116 3.352-5.176 5.94-9.18 7.763-3.971 1.823-8.74 2.735-14.306 2.735Zm95.166-11.866v3.37c0 5.403-.733 10.253-2.198 14.55-1.464 4.297-3.531 7.959-6.201 10.987a26.887 26.887 0 0 1-9.57 6.884c-3.678 1.596-7.764 2.393-12.256 2.393-4.46 0-8.545-.797-12.256-2.393a27.48 27.48 0 0 1-9.57-6.884c-2.702-3.028-4.801-6.69-6.299-10.987-1.465-4.297-2.197-9.147-2.197-14.55v-3.37c0-5.436.732-10.286 2.197-14.55 1.465-4.297 3.532-7.959 6.201-10.987 2.702-3.027 5.892-5.338 9.571-6.933 3.711-1.595 7.796-2.393 12.255-2.393 4.493 0 8.578.798 12.256 2.393a26.63 26.63 0 0 1 9.571 6.933c2.701 3.028 4.785 6.69 6.25 10.987 1.497 4.264 2.246 9.114 2.246 14.55Zm-14.795 3.37v-3.467c0-3.776-.342-7.097-1.026-9.961-.683-2.865-1.692-5.274-3.027-7.227-1.335-1.953-2.962-3.418-4.883-4.394-1.92-1.009-4.118-1.514-6.592-1.514-2.473 0-4.671.505-6.591 1.514-1.888.976-3.5 2.441-4.834 4.394-1.302 1.953-2.295 4.362-2.979 7.227-.683 2.864-1.025 6.185-1.025 9.961v3.467c0 3.743.342 7.063 1.025 9.961.684 2.864 1.693 5.289 3.028 7.275 1.334 1.953 2.962 3.434 4.882 4.443 1.921 1.009 4.118 1.514 6.592 1.514 2.474 0 4.671-.505 6.592-1.514 1.92-1.009 3.532-2.49 4.834-4.443 1.302-1.986 2.295-4.411 2.978-7.275.684-2.898 1.026-6.218 1.026-9.961Zm83.203-37.256v71.093h-14.649l-28.564-47.656v47.656H364.35v-71.093h14.648l28.613 47.705v-47.705h14.6Zm43.066 0v71.093h-14.599v-71.093h14.599Zm21.875 0v11.474h-58.007v-11.474h58.007Zm31.983 12.158-19.336 58.935h-15.576l26.416-71.093h9.912l-1.416 12.158Zm16.064 58.935-19.385-58.935-1.562-12.158h10.01l26.562 71.093h-15.625Zm-.879-26.464v11.474h-37.549v-11.474h37.549Zm68.799 15.039v11.425h-35.791v-11.425h35.791Zm-31.055-59.668v71.093h-14.648v-71.093h14.648Zm60.108 0v71.093h-14.6v-71.093h14.6Zm21.875 0v11.474h-58.008v-11.474h58.008Zm23.926 0v71.093h-14.6v-71.093h14.6ZM96.782 228.118C42.996 150.486 23.884 66.883 112.287 0 60.289 85.12 69.269 123.016 96.782 228.118Z"/>
  <path fill="#00BCD6" d="M93.153 76.436c6.632-27.204 35.83-62.106 35.83-62.106s-14.294 42.914-14.336 74.049c-.061 44.368 26.279 80.02 26.279 115.85 0 63.479-29.858 90.77-29.858 90.77s1.624-60.029 0-90.77c-2.659-50.324-29.853-78.826-17.915-127.794Z"/>
  <path fill="#002C6D" d="M166.007 135.375c7.166-13.138-15.527-27.474-15.527-27.474s39.639-5.058 39.413 20.306c-.226 25.365-67.431 62.569-167.206 72.853 0 0 117.123-17.658 143.32-65.685Z"/>
  <path fill="#002C6D" d="M143.319 94.348c7.166-13.138-15.526-27.474-15.526-27.474s39.638-5.058 39.413 20.306C166.98 112.544 99.775 149.748 0 160.032c0 0 117.123-17.657 143.319-65.684Z"/>
</svg>
