<svg xmlns="http://www.w3.org/2000/svg" width="150" height="234" fill="none" viewBox="0 0 150 234">
  <path fill="#F8F8F8" d="M76.448 180.189C33.963 118.868 18.867 52.83 88.696 0c-41.073 67.237-33.98 97.17-12.248 180.189Z"/>
  <path fill="#F8F8F8" d="M73.58 60.377c5.24-21.487 28.302-49.057 28.302-49.057s-11.29 33.898-11.324 58.491c-.048 35.047 20.758 63.208 20.758 91.51 0 50.142-23.585 71.698-23.585 71.698s1.283-47.416 0-71.698c-2.1-39.751-23.58-62.264-14.15-100.944Z"/>
  <path fill="#F8F8F8" d="M131.131 106.932c5.66-10.377-12.264-21.7-12.264-21.7s31.31-3.996 31.132 16.039c-.179 20.035-53.264 49.422-132.075 57.545 0 0 92.514-13.947 113.207-51.884Z"/>
  <path fill="#F8F8F8" d="M113.207 74.528c5.66-10.377-12.264-21.701-12.264-21.701s31.31-3.996 31.132 16.04C131.896 88.9 78.812 118.288 0 126.411c0 0 92.515-13.947 113.207-51.884Z"/>
</svg>
